# xmcd
# 
# Track frame offsets:
#     150
#     26727
#     47001
#     67273
#     82015
#     105322
#     115841
# 
# Disc length: 1781
# 
# Revision: 0
# Processed by: cddbd v1.5.2PL0 Copyright (c) Steve Scherf et al.
# Submitted via: BonkEnc v1.0.8
# 
DISCID=5906f307
DTITLE=Jennifer Nicely - Seven Songs
DYEAR=2004
DGENRE=
TTITLE0=Moving On
TTITLE1=More Than You
TTITLE2=Biloxi
TTITLE3=Troubled Sea
TTITLE4=Inside My House
TTITLE5=You Belong to Me
TTITLE6=Falconer
EXTD=
EXTT0=
EXTT1=
EXTT2=
EXTT3=
EXTT4=
EXTT5=
EXTT6=
PLAYORDER=
